<?xml version="1.0" encoding="utf-8"?>
<!-- Generator: Adobe Illustrator 23.0.3, SVG Export Plug-In . SVG Version: 6.00 Build 0)  -->
<svg version="1.1" id="レイヤー_1" xmlns="http://www.w3.org/2000/svg" xmlns:xlink="http://www.w3.org/1999/xlink" x="0px"
	 y="0px" viewBox="0 0 1280 720" style="enable-background:new 0 0 1280 720;" xml:space="preserve">
<style type="text/css">
	.st0{fill:#FFFFFF;stroke:#3399CC;stroke-width:5.9246;stroke-miterlimit:10;}
	.st1{fill:none;stroke:#3399CC;stroke-width:5.9246;stroke-linecap:round;stroke-miterlimit:10;}
	.st2{fill:#3399CC;}
	.st3{fill:none;stroke:#3399CC;stroke-width:5.9246;stroke-linecap:round;stroke-linejoin:round;}
	.st4{fill:#333333;}
	.st5{fill:none;stroke:#333333;stroke-width:1.1847;stroke-miterlimit:10;}
</style>
<g>
	<g>
		<g id="XMLID_1_">
			<g>
				<path class="st0" d="M286.3,314c0-0.8,0-0.4,0-2.3v-0.3c0-2.1-0.1-4.4-0.3-6.5h0.2c7.5,10.8,11.9,24,11.9,38.1
					c0,5.9-0.8,11.7-2.3,17.1l-0.3,0.1C289.5,346,286.3,330.4,286.3,314z"/>
				<path class="st0" d="M184.1,488.3v-0.1c-2.3-11-3.6-22.5-4.1-34h-0.1c-3.8,9-7.8,18.6-11.7,28v0.1
					C172.9,485.3,178.3,487.3,184.1,488.3z M164.8,387.8c-19.3-5.6-30.3-25.7-24.8-45l7.2-16.3l-0.9-0.4c-9.9-3-16.9-12.2-17.1-22.6
					c-0.1-4.9,2.3-9.4,1.8-14.3c-0.3-3.4-1.8-6.5-3.9-9.1l0.1-0.1c0-7.4,6-13.4,13.4-13.4c0.1,0,0.2,0,0.4,0l0.1-0.1
					c2.4,1.7,4.9,2.4,8.8,2.4c5.6,0,8.1-5.9,10.2-7.8c13.4-15.2,31.4-22.4,53.3-22.4c38,0,69.5,29.1,72.9,66.1
					c0.2,2.1,0.3,4.3,0.3,6.5v0.3c0,1.8,0,1.5,0,2.3c0,16.4,3.3,32,9.3,46.2c7.4,17.5,18.8,32.9,33,45l0,0
					c23.9,20.5,38.9,50.9,38.9,84.8c0,9.2-1.2,18.3-3.2,27l0.2,0.1c11.8,5.3,24.9,8.1,38.6,8.1c14.8,0,28.8-3.3,41.4-9.3l0,0
					c-44.2,26.5-95.9,41.5-151.1,41.5c-43.8,0-85.4-9.5-122.8-26.7l-0.1-0.2c-5.1-6.3-9.6-12.8-14-19.7c-4.5-7.1-8.7-14.3-12.4-21.8
					c-4.9-9.8-9.2-19.8-12.8-30.2c-0.6-1.5-1.2-3.4-1.2-5.1c0-6.8,5.4-12.2,12.2-12.2c6.8,0,12.2,5.4,12.2,12.2
					c0,2.8-0.9,5.4-2.4,7.4v0.1c0.3,1.1,0.8,2.1,1.2,3.1l0.2-0.1c7.9-23.8,12.9-49,14.6-75.1l0.1-0.3
					C166.8,388.4,165.7,388,164.8,387.8z"/>
				<path class="st0" d="M153.4,517.4c-0.6,1.3-2.1,2.1-3.6,2.1c-0.8,0-1.5-0.2-2.1-0.6l0,0c-6-3.4-11.9-7-17.6-10.8l-0.3-0.2
					c-1.9-1.8-3.2-4.4-3.2-7.2c0-5.4,4.4-9.8,9.8-9.8c2.1,0,3.9,0.6,5.6,1.7l0.2-0.1c0.6-1.3,1.1-2.4,1.6-3.6h0.1
					c3.8,7.5,7.9,14.9,12.4,21.8l-0.1,0.1c-0.9,2.1-1.7,4.2-2.4,5.9C153.6,517.1,153.5,517.3,153.4,517.4z"/>
				<path class="st0" d="M140.4,266.7c-7.4,0-13.4,6-13.4,13.4l-0.1,0.1c-0.9-1.1-2.1-2.1-3.4-2.9c-1.2-0.6-4.9-2.9-4.9-8.6
					c0-5.6,4.6-10.2,10.2-10.2c5.6,0,7.2,3.6,9.1,5.4l0,0c1.2,1.1,2.1,1.9,3.2,2.6l-0.1,0.1C140.6,266.7,140.4,266.7,140.4,266.7z"
					/>
			</g>
			<g>
				<path class="st1" d="M172.2,269.1l-25.1,57.3l-7.2,16.3c-5.6,19.3,5.4,39.4,24.8,45c1.1,0.3,2.1,0.6,3.1,0.8
					c18.2,3.6,36.5-7.3,41.9-25.5c0,0,11.7-73,13.7-85.2"/>
				<path class="st1" d="M123.3,277.3c1.3,0.9,2.4,1.8,3.4,2.9c2.3,2.4,3.6,5.7,3.9,9.1c0.6,4.8-1.9,9.3-1.8,14.3
					c0.2,10.4,7.3,19.6,17.1,22.6"/>
				<path class="st1" d="M123.3,277.3c-1.2-0.6-4.9-2.9-4.9-8.6c0-5.6,4.6-10.2,10.2-10.2c5.6,0,7.2,3.6,9.1,5.4"/>
				<path class="st1" d="M140.8,266.7c-0.1,0-0.2,0-0.4,0c-7.4,0-13.4,6-13.4,13.4"/>
				<path class="st1" d="M137.4,263.7c0.1,0.1,0.2,0.2,0.3,0.2c1.2,1.1,2.1,1.9,3.2,2.6c2.4,1.7,4.9,2.4,8.8,2.4
					c5.6,0,8.1-5.9,10.2-7.8"/>
				<path class="st1" d="M159.7,261.2c13.4-15.2,31.4-22.4,53.3-22.4c38,0,69.5,29.1,72.9,66.1c0.2,2.1,0.3,4.3,0.3,6.5"/>
				<path class="st1" d="M286.3,311.6c0,1.8,0,1.5,0,2.3c0,16.4,3.3,32,9.3,46.2c7.4,17.5,18.8,32.9,33,45c0.1,0.1,0.3,0.2,0.4,0.3"
					/>
				<path class="st1" d="M364.2,517c2.1-8.7,3.2-17.7,3.2-27c0-34-15.1-64.3-38.9-84.8"/>
				<path class="st1" d="M364.4,517c11.8,5.3,24.9,8.1,38.6,8.1c14.8,0,28.8-3.3,41.4-9.3"/>
				<path class="st1" d="M151.9,460.9c1.5-2.1,2.4-4.6,2.4-7.4c0-6.8-5.4-12.2-12.2-12.2c-6.8,0-12.2,5.4-12.2,12.2
					c0,1.7,0.4,3.6,1.2,5.1"/>
				<path class="st1" d="M130.5,457.1c0.2,0.6,0.3,1.1,0.6,1.6c3.6,10.4,7.8,20.6,12.8,30.2c3.8,7.5,7.9,14.9,12.4,21.8
					c4.4,6.8,9,13.4,14,19.7"/>
				<path class="st1" d="M151.9,461c0.3,1.1,0.8,2.1,1.2,3.1c3.1,7.4,8.5,13.7,15.1,18.1c4.7,3.1,10.1,5.3,15.9,6.2
					c2.1,0.3,4.3,0.6,6.4,0.6"/>
				<path class="st1" d="M294.3,488.8c0-28.6-23.3-51.8-51.9-51.8s-51.9,23.1-51.9,51.8"/>
				<path class="st1" d="M142.2,492.6c0.6-1.3,1.1-2.4,1.6-3.6"/>
				<path class="st1" d="M153.2,464c7.9-23.8,12.9-49,14.6-75.1"/>
				<path class="st1" d="M153.4,517.4c0,0,0,0.1-0.1,0.1"/>
				<path class="st1" d="M156.2,510.9c-0.9,2.1-1.7,4.2-2.4,5.9"/>
				<path class="st1" d="M168.2,482.1c3.9-9.3,7.9-19,11.7-28c8.7-20.8,15.9-37.9,15.9-37.9"/>
				<path class="st1" d="M180,454.1c0.4,11.6,1.8,22.9,4.1,34"/>
				<path class="st1" d="M141.9,492.8c-1.6-1.1-3.6-1.7-5.6-1.7c-5.4,0-9.8,4.4-9.8,9.8c0,2.9,1.2,5.4,3.2,7.2"/>
				<path class="st1" d="M130,508.2c5.7,3.9,11.6,7.4,17.6,10.8c0.1,0.1,0.3,0.1,0.4,0.2"/>
				<path class="st1" d="M170.4,530.7c37.4,17.1,79,26.7,122.8,26.7c55.3,0,106.9-15.2,151.1-41.5c0.2-0.1,0.3-0.2,0.6-0.3"/>
				<path class="st1" d="M147.7,519c0.6,0.3,1.4,0.6,2.1,0.6c1.5,0,2.9-0.9,3.6-2.1c0.1-0.2,0.2-0.4,0.3-0.6"/>
				<path class="st1" d="M295.8,360.2c1.5-5.4,2.3-11.1,2.3-17.1c0-14.1-4.4-27.3-11.9-38.1"/>
			</g>
		</g>
	</g>
	<g>
		<path class="st2" d="M240.7,375.8c-0.1,7.9-9.8,19.4-11.5,24.5c-0.1,0.6-0.9,1.5-2.4,1.7c-3.3,0.3-6.1-1.4-7.1-2.4
			c-0.9-1.1-1.8-2.1-1.9-2.7c0-0.8,0.9-1.2,1.7-0.9c0.6,0.2,1.6,0.6,2.4,0.1c4.3-2.1,10.5-12.8,17-20.3
			C239.6,375,240.7,375.2,240.7,375.8 M226.4,361.9c2.8,0.9,5.8,3.9,5.8,5.3c0,1.4-0.9,2.1-2.4,2.1c-2.1-0.2-3.8-0.6-4.9-1.2
			c-2.6-1.4-5.3-3.1-6.8-5c-0.6-0.8-0.6-1.3,0-1.3C220.8,361.9,224.5,361.4,226.4,361.9 M239.4,349.8c0.8,2.4,0,3.6-2.4,3.2
			c-1.5-0.2-4.3-0.9-6.4-2.6c-1.8-1.4-3-3.3-3.6-4.1c-0.6-0.6-0.9-1.1,0.1-0.9c2.1,0.1,5.1,0.9,7.9,1.3
			C237.3,347,238.8,348,239.4,349.8 M256.6,344.1c3.4-0.3,6.1-0.1,7.3,0.3c2.4,0.6,3,1.5,2.7,2.1c-0.6,0.9-1.5,3.6-1.4,3.8
			c0.2,0.3,3.2-0.6,4.8-1.2c0.6-0.3,1.4-0.3,1.9-0.3c2.4,0.1,4.2,0.4,4.8,0.8c0.9,0.4,0.9,1.3,0.2,1.5c-3,0.9-10.8,0.1-12.4,1.4
			c-0.6,0.4-1.4,5.8-1.3,5.8c0.6,0.6,7.9-1.7,8.7-2c0.4-0.1,1.2-0.6,1.8-0.4c2.8,0.3,4.9,1.5,6,2.1c1.1,0.6,0.9,0.9,0.4,1.4
			c-0.4,0.4-0.6,1.8-0.6,2.9c-0.1,1.7-0.1,3.9-0.6,6c-0.2,1.4-1.2,2.6-2.1,2.6c-0.9,0.1-2.4-0.6-3.3-0.8c-1.8-0.1-6.1,2.6-6.1,2.6
			s1.2,0.1,1.3,0.4c0.8,1.4,1.9,3.6,2.3,3.8c0.6,0.3,5.1-1.5,5.9-2.1c0.3-0.2,0.9-0.9,1.7-0.9c1.8,0,3.6,0.6,5.1,1.3
			c1.2,0.6,0.8,1.4-0.8,1.6c-2.1,0.3-10.5,1.1-11.1,2.4c-0.1,0.3,0.6,3.1,1.1,5.4c0.9,4.5,0.4,6.6,0.2,7.4c-0.2,0.6-0.8,1.4-1.9,1.8
			c-2.4,0.9-4.2,0.9-5.7,0.4c-1.1-0.4-1.8-0.9-2.1-1.2c-0.6-0.6-0.6-1.2,0-1.8c0.8-0.8,1.5-2.4,1.7-4.7c0.1-1.4-0.2-3.9-0.4-4.1
			c-2.4-1.1-16.2,5.4-18.3,6c-1.1,0.3-2.9,0.4-5.1,0.6c-1.9,0.1-2.1-0.1-0.6-0.6c7.2-2.4,21.4-5.1,23.4-8.4c0.3-0.6-0.4-2.7-0.9-4.2
			c-0.2-0.6-0.9-1.1-1.5-1.1c-0.6,0-2.3,0.6-2.4,0.9c-0.3,0.4-0.9,1.8-2.8,1.8c-2.7-0.1-5.1-0.9-6.4-2.4c-1.9-2.1-3.9-5.4-5.8-8.1
			c-0.6-0.8-1.5-1.3-2.4-1.8c-1.2-0.8-0.9-1.8,0.6-1.9c2.1,0,4.1,0.1,5.1,0c2.1-0.2,8.4-0.9,9.8-2.8c0.6-0.9,0.6-6.2,0.6-6.2
			c-0.8-0.6-9,2.9-10.6,3c-1.3,0.1-3,0.1-4.9-0.2s-1.6-0.8,0.9-1.1c6.1-0.9,13.1-2.3,14.5-3.6c0.3-0.3,0.6-2,0.8-3.6
			c0-0.8,0.2-2.3,0-2.6c-0.2-0.3-1.6-0.6-1.8-0.9C255.4,344.7,255.7,344.2,256.6,344.1 M252.6,367.9c2.8,0.6,9.1-3.3,10.5-4.3
			c0.9-0.6,1.6-0.9,2.4-1.1c0.9-0.2,1.9-0.2,2.7,0c1.8,0.3,2.1,0.9,0.6,1.7c-4.7,2.6-14.4,4.7-14.6,5.3c-0.1,0.3,2.3,3.9,3,4.1
			c2.4,0.6,14.9-4.8,15.8-6.1c0.8-0.9,0.3-7.3-0.4-9c-0.1-0.4-1.1-0.8-1.8-0.6c-5.7,0.8-20.4,5.7-20.6,6.4
			C249.9,364.8,252.2,367.9,252.6,367.9 M294.1,360c0.9,1.2,0.9,2.6,1.1,3.2c0.6,7.6,8.1,18,11.1,24c1.4,2.7,2.4,4.5,2.7,5.4
			c0.3,1.2,0.1,2.3-0.3,3c-0.3,0.4-0.8,0.4-1.3,0c-2.4-2.7-5.9-5.4-9.1-8c-0.4-0.4-0.3-0.6,0.4-0.2c3.3,1.7,5.1,2.7,5.7,2.9
			c0.6,0.2,0.9,0.1,0.8-0.2c-2.6-9-9-20-13-29.9c-0.6-1.3-1.2-2.4-1.9-2.9c-1.5-1.1-6.8-2.8-6.8-2.8c0,0.1,1.4,1.6,1.7,2.3
			c0.6,1.3,0.9,4.3,1.8,5.6c0.3,0.6,2.1,1.4,2.9,1.3c0.1,0,0.6-0.1,0.9,0.1c1.3,0.8,2.1,1.9,2.4,2.4c0.6,0.8,0.8,1.5,0.6,1.5
			c-0.6,0.1-6-2.9-6-2.9c-0.1,0.1,1.2,5.7,2.4,7c0.8,0.8,3.1,1.3,3.6,1.2c0.2,0,0.8-0.2,0.9,0c0.9,0.6,1.9,1.6,2.6,2.4
			c0.9,1.1,0.9,1.6,0.2,1.4c-1.8-0.6-6.8-2.9-6.8-2.9c-0.4,0.3,0.9,7.6-0.2,9.8c-0.8,1.5-3.8,4.4-8.7,6.3c-0.9,0.3-1.4,0.1-0.9-0.4
			c4.3-3.6,7.1-7.3,6.6-12c-0.2-2.1-0.9-4.9-1.8-7.7c-0.6-2.4-2.1-5.7-3.2-9.5c-0.4-1.6-1.1-3.6-2.1-5.4c-0.4-0.8-1.7-1.6-2.3-2.4
			c-0.2-0.3,0.3-0.9,0.8-0.6c0.2,0.1,0.6,0.3,0.9,0.4c2.9,0.8,6.3,1.5,8.4,2.4c0.8,0.3,1.6,0.6,1.9,0.8c0.2,0.1,0.6,0.6,1.1,1.3
			C292.5,357.8,293.4,359,294.1,360z"/>
		<g>
			<path class="st2" d="M240.7,375.8c-0.1,7.9-9.8,19.4-11.5,24.5c-0.1,0.6-0.9,1.5-2.4,1.7c-3.3,0.3-6.1-1.4-7.1-2.4
				c-0.9-1.1-1.8-2.1-1.9-2.7c0-0.8,0.9-1.2,1.7-0.9c0.6,0.2,1.6,0.6,2.4,0.1c4.3-2.1,10.5-12.8,17-20.3
				C239.6,375,240.7,375.2,240.7,375.8 M226.4,361.9c2.8,0.9,5.8,3.9,5.8,5.3c0,1.4-0.9,2.1-2.4,2.1c-2.1-0.2-3.8-0.6-4.9-1.2
				c-2.6-1.4-5.3-3.1-6.8-5c-0.6-0.8-0.6-1.3,0-1.3C220.8,361.9,224.5,361.4,226.4,361.9 M239.4,349.8c0.8,2.4,0,3.6-2.4,3.2
				c-1.5-0.2-4.3-0.9-6.4-2.6c-1.8-1.4-3-3.3-3.6-4.1c-0.6-0.6-0.9-1.1,0.1-0.9c2.1,0.1,5.1,0.9,7.9,1.3
				C237.3,347,238.8,348,239.4,349.8 M256.6,344.1c3.4-0.3,6.1-0.1,7.3,0.3c2.4,0.6,3,1.5,2.7,2.1c-0.6,0.9-1.5,3.6-1.4,3.8
				c0.2,0.3,3.2-0.6,4.8-1.2c0.6-0.3,1.4-0.3,1.9-0.3c2.4,0.1,4.2,0.4,4.8,0.8c0.9,0.4,0.9,1.3,0.2,1.5c-3,0.9-10.8,0.1-12.4,1.4
				c-0.6,0.4-1.4,5.8-1.3,5.8c0.6,0.6,7.9-1.7,8.7-2c0.4-0.1,1.2-0.6,1.8-0.4c2.8,0.3,4.9,1.5,6,2.1c1.1,0.6,0.9,0.9,0.4,1.4
				c-0.4,0.4-0.6,1.8-0.6,2.9c-0.1,1.7-0.1,3.9-0.6,6c-0.2,1.4-1.2,2.6-2.1,2.6c-0.9,0.1-2.4-0.6-3.3-0.8c-1.8-0.1-6.1,2.6-6.1,2.6
				s1.2,0.1,1.3,0.4c0.8,1.4,1.9,3.6,2.3,3.8c0.6,0.3,5.1-1.5,5.9-2.1c0.3-0.2,0.9-0.9,1.7-0.9c1.8,0,3.6,0.6,5.1,1.3
				c1.2,0.6,0.8,1.4-0.8,1.6c-2.1,0.3-10.5,1.1-11.1,2.4c-0.1,0.3,0.6,3.1,1.1,5.4c0.9,4.5,0.4,6.6,0.2,7.4
				c-0.2,0.6-0.8,1.4-1.9,1.8c-2.4,0.9-4.2,0.9-5.7,0.4c-1.1-0.4-1.8-0.9-2.1-1.2c-0.6-0.6-0.6-1.2,0-1.8c0.8-0.8,1.5-2.4,1.7-4.7
				c0.1-1.4-0.2-3.9-0.4-4.1c-2.4-1.1-16.2,5.4-18.3,6c-1.1,0.3-2.9,0.4-5.1,0.6c-1.9,0.1-2.1-0.1-0.6-0.6
				c7.2-2.4,21.4-5.1,23.4-8.4c0.3-0.6-0.4-2.7-0.9-4.2c-0.2-0.6-0.9-1.1-1.5-1.1c-0.6,0-2.3,0.6-2.4,0.9c-0.3,0.4-0.9,1.8-2.8,1.8
				c-2.7-0.1-5.1-0.9-6.4-2.4c-1.9-2.1-3.9-5.4-5.8-8.1c-0.6-0.8-1.5-1.3-2.4-1.8c-1.2-0.8-0.9-1.8,0.6-1.9c2.1,0,4.1,0.1,5.1,0
				c2.1-0.2,8.4-0.9,9.8-2.8c0.6-0.9,0.6-6.2,0.6-6.2c-0.8-0.6-9,2.9-10.6,3c-1.3,0.1-3,0.1-4.9-0.2s-1.6-0.8,0.9-1.1
				c6.1-0.9,13.1-2.3,14.5-3.6c0.3-0.3,0.6-2,0.8-3.6c0-0.8,0.2-2.3,0-2.6c-0.2-0.3-1.6-0.6-1.8-0.9
				C255.4,344.7,255.7,344.2,256.6,344.1 M252.6,367.9c2.8,0.6,9.1-3.3,10.5-4.3c0.9-0.6,1.6-0.9,2.4-1.1c0.9-0.2,1.9-0.2,2.7,0
				c1.8,0.3,2.1,0.9,0.6,1.7c-4.7,2.6-14.4,4.7-14.6,5.3c-0.1,0.3,2.3,3.9,3,4.1c2.4,0.6,14.9-4.8,15.8-6.1c0.8-0.9,0.3-7.3-0.4-9
				c-0.1-0.4-1.1-0.8-1.8-0.6c-5.7,0.8-20.4,5.7-20.6,6.4C249.9,364.8,252.2,367.9,252.6,367.9 M294.1,360c0.9,1.2,0.9,2.6,1.1,3.2
				c0.6,7.6,8.1,18,11.1,24c1.4,2.7,2.4,4.5,2.7,5.4c0.3,1.2,0.1,2.3-0.3,3c-0.3,0.4-0.8,0.4-1.3,0c-2.4-2.7-5.9-5.4-9.1-8
				c-0.4-0.4-0.3-0.6,0.4-0.2c3.3,1.7,5.1,2.7,5.7,2.9c0.6,0.2,0.9,0.1,0.8-0.2c-2.6-9-9-20-13-29.9c-0.6-1.3-1.2-2.4-1.9-2.9
				c-1.5-1.1-6.8-2.8-6.8-2.8c0,0.1,1.4,1.6,1.7,2.3c0.6,1.3,0.9,4.3,1.8,5.6c0.3,0.6,2.1,1.4,2.9,1.3c0.1,0,0.6-0.1,0.9,0.1
				c1.3,0.8,2.1,1.9,2.4,2.4c0.6,0.8,0.8,1.5,0.6,1.5c-0.6,0.1-6-2.9-6-2.9c-0.1,0.1,1.2,5.7,2.4,7c0.8,0.8,3.1,1.3,3.6,1.2
				c0.2,0,0.8-0.2,0.9,0c0.9,0.6,1.9,1.6,2.6,2.4c0.9,1.1,0.9,1.6,0.2,1.4c-1.8-0.6-6.8-2.9-6.8-2.9c-0.4,0.3,0.9,7.6-0.2,9.8
				c-0.8,1.5-3.8,4.4-8.7,6.3c-0.9,0.3-1.4,0.1-0.9-0.4c4.3-3.6,7.1-7.3,6.6-12c-0.2-2.1-0.9-4.9-1.8-7.7c-0.6-2.4-2.1-5.7-3.2-9.5
				c-0.4-1.6-1.1-3.6-2.1-5.4c-0.4-0.8-1.7-1.6-2.3-2.4c-0.2-0.3,0.3-0.9,0.8-0.6c0.2,0.1,0.6,0.3,0.9,0.4c2.9,0.8,6.3,1.5,8.4,2.4
				c0.8,0.3,1.6,0.6,1.9,0.8c0.2,0.1,0.6,0.6,1.1,1.3C292.5,357.8,293.4,359,294.1,360z"/>
		</g>
		<g>
			<path class="st2" d="M240.7,375.8c-0.1,7.9-9.8,19.4-11.5,24.5c-0.1,0.6-0.9,1.5-2.4,1.7c-3.3,0.3-6.1-1.4-7.1-2.4
				c-0.9-1.1-1.8-2.1-1.9-2.7c0-0.8,0.9-1.2,1.7-0.9c0.6,0.2,1.6,0.6,2.4,0.1c4.3-2.1,10.5-12.8,17-20.3
				C239.6,375,240.7,375.2,240.7,375.8 M226.4,361.9c2.8,0.9,5.8,3.9,5.8,5.3c0,1.4-0.9,2.1-2.4,2.1c-2.1-0.2-3.8-0.6-4.9-1.2
				c-2.6-1.4-5.3-3.1-6.8-5c-0.6-0.8-0.6-1.3,0-1.3C220.8,361.9,224.5,361.4,226.4,361.9 M239.4,349.8c0.8,2.4,0,3.6-2.4,3.2
				c-1.5-0.2-4.3-0.9-6.4-2.6c-1.8-1.4-3-3.3-3.6-4.1c-0.6-0.6-0.9-1.1,0.1-0.9c2.1,0.1,5.1,0.9,7.9,1.3
				C237.3,347,238.8,348,239.4,349.8 M256.6,344.1c3.4-0.3,6.1-0.1,7.3,0.3c2.4,0.6,3,1.5,2.7,2.1c-0.6,0.9-1.5,3.6-1.4,3.8
				c0.2,0.3,3.2-0.6,4.8-1.2c0.6-0.3,1.4-0.3,1.9-0.3c2.4,0.1,4.2,0.4,4.8,0.8c0.9,0.4,0.9,1.3,0.2,1.5c-3,0.9-10.8,0.1-12.4,1.4
				c-0.6,0.4-1.4,5.8-1.3,5.8c0.6,0.6,7.9-1.7,8.7-2c0.4-0.1,1.2-0.6,1.8-0.4c2.8,0.3,4.9,1.5,6,2.1c1.1,0.6,0.9,0.9,0.4,1.4
				c-0.4,0.4-0.6,1.8-0.6,2.9c-0.1,1.7-0.1,3.9-0.6,6c-0.2,1.4-1.2,2.6-2.1,2.6c-0.9,0.1-2.4-0.6-3.3-0.8c-1.8-0.1-6.1,2.6-6.1,2.6
				s1.2,0.1,1.3,0.4c0.8,1.4,1.9,3.6,2.3,3.8c0.6,0.3,5.1-1.5,5.9-2.1c0.3-0.2,0.9-0.9,1.7-0.9c1.8,0,3.6,0.6,5.1,1.3
				c1.2,0.6,0.8,1.4-0.8,1.6c-2.1,0.3-10.5,1.1-11.1,2.4c-0.1,0.3,0.6,3.1,1.1,5.4c0.9,4.5,0.4,6.6,0.2,7.4
				c-0.2,0.6-0.8,1.4-1.9,1.8c-2.4,0.9-4.2,0.9-5.7,0.4c-1.1-0.4-1.8-0.9-2.1-1.2c-0.6-0.6-0.6-1.2,0-1.8c0.8-0.8,1.5-2.4,1.7-4.7
				c0.1-1.4-0.2-3.9-0.4-4.1c-2.4-1.1-16.2,5.4-18.3,6c-1.1,0.3-2.9,0.4-5.1,0.6c-1.9,0.1-2.1-0.1-0.6-0.6
				c7.2-2.4,21.4-5.1,23.4-8.4c0.3-0.6-0.4-2.7-0.9-4.2c-0.2-0.6-0.9-1.1-1.5-1.1c-0.6,0-2.3,0.6-2.4,0.9c-0.3,0.4-0.9,1.8-2.8,1.8
				c-2.7-0.1-5.1-0.9-6.4-2.4c-1.9-2.1-3.9-5.4-5.8-8.1c-0.6-0.8-1.5-1.3-2.4-1.8c-1.2-0.8-0.9-1.8,0.6-1.9c2.1,0,4.1,0.1,5.1,0
				c2.1-0.2,8.4-0.9,9.8-2.8c0.6-0.9,0.6-6.2,0.6-6.2c-0.8-0.6-9,2.9-10.6,3c-1.3,0.1-3,0.1-4.9-0.2s-1.6-0.8,0.9-1.1
				c6.1-0.9,13.1-2.3,14.5-3.6c0.3-0.3,0.6-2,0.8-3.6c0-0.8,0.2-2.3,0-2.6c-0.2-0.3-1.6-0.6-1.8-0.9
				C255.4,344.7,255.7,344.2,256.6,344.1 M252.6,367.9c2.8,0.6,9.1-3.3,10.5-4.3c0.9-0.6,1.6-0.9,2.4-1.1c0.9-0.2,1.9-0.2,2.7,0
				c1.8,0.3,2.1,0.9,0.6,1.7c-4.7,2.6-14.4,4.7-14.6,5.3c-0.1,0.3,2.3,3.9,3,4.1c2.4,0.6,14.9-4.8,15.8-6.1c0.8-0.9,0.3-7.3-0.4-9
				c-0.1-0.4-1.1-0.8-1.8-0.6c-5.7,0.8-20.4,5.7-20.6,6.4C249.9,364.8,252.2,367.9,252.6,367.9 M294.1,360c0.9,1.2,0.9,2.6,1.1,3.2
				c0.6,7.6,8.1,18,11.1,24c1.4,2.7,2.4,4.5,2.7,5.4c0.3,1.2,0.1,2.3-0.3,3c-0.3,0.4-0.8,0.4-1.3,0c-2.4-2.7-5.9-5.4-9.1-8
				c-0.4-0.4-0.3-0.6,0.4-0.2c3.3,1.7,5.1,2.7,5.7,2.9c0.6,0.2,0.9,0.1,0.8-0.2c-2.6-9-9-20-13-29.9c-0.6-1.3-1.2-2.4-1.9-2.9
				c-1.5-1.1-6.8-2.8-6.8-2.8c0,0.1,1.4,1.6,1.7,2.3c0.6,1.3,0.9,4.3,1.8,5.6c0.3,0.6,2.1,1.4,2.9,1.3c0.1,0,0.6-0.1,0.9,0.1
				c1.3,0.8,2.1,1.9,2.4,2.4c0.6,0.8,0.8,1.5,0.6,1.5c-0.6,0.1-6-2.9-6-2.9c-0.1,0.1,1.2,5.7,2.4,7c0.8,0.8,3.1,1.3,3.6,1.2
				c0.2,0,0.8-0.2,0.9,0c0.9,0.6,1.9,1.6,2.6,2.4c0.9,1.1,0.9,1.6,0.2,1.4c-1.8-0.6-6.8-2.9-6.8-2.9c-0.4,0.3,0.9,7.6-0.2,9.8
				c-0.8,1.5-3.8,4.4-8.7,6.3c-0.9,0.3-1.4,0.1-0.9-0.4c4.3-3.6,7.1-7.3,6.6-12c-0.2-2.1-0.9-4.9-1.8-7.7c-0.6-2.4-2.1-5.7-3.2-9.5
				c-0.4-1.6-1.1-3.6-2.1-5.4c-0.4-0.8-1.7-1.6-2.3-2.4c-0.2-0.3,0.3-0.9,0.8-0.6c0.2,0.1,0.6,0.3,0.9,0.4c2.9,0.8,6.3,1.5,8.4,2.4
				c0.8,0.3,1.6,0.6,1.9,0.8c0.2,0.1,0.6,0.6,1.1,1.3C292.5,357.8,293.4,359,294.1,360z"/>
		</g>
	</g>
	<path class="st3" d="M389.9,496.6c34.1-35.5,55-83.5,55-136.7c0-109.1-88.4-197.4-197.5-197.4C138.4,162.7,50,251,50,360
		c0,53,20.9,101.2,55,136.7"/>
</g>
<g>
	<path class="st4" d="M541.4,194.7c-0.9-1.1-2.6-3.2-4.9-8v24.9h-2.8v-25.3c-1.1,3-4.8,10.7-8.1,14.3l-1.7-3.2
		c4.3-4.7,8.2-13.2,9.6-17.6h-9.1v-2.6h9.4v-9.1c-4.5,0.8-7.1,0.9-8.6,1.1l-0.5-2.6c9.6-0.9,13.1-1.9,17.4-3.6l1.4,2.6
		c-1.7,0.6-3.4,1.3-6.8,2.1v9.7h7.3v2.6h-7.3v2.1c1.3,2.7,4.1,7.1,7.3,10.5L541.4,194.7z M540.2,209.5c4.5-1.9,16.2-6.8,16.2-27.9
		v-18.6h2.9v18.8c0,0.7,0,2.4,0,2.9c2.2,16,9.4,22.1,14.1,24.6l-2,2.4c-7.4-4.4-11.6-12.8-13.1-19.9c-3.1,13.9-12.2,18.2-16.2,20.1
		L540.2,209.5z M548.1,187.6c-0.8-4.1-1.9-10-4.3-15.3l2.6-0.9c2.2,5.1,3.6,10.9,4.5,15.6L548.1,187.6z M564.9,186.5
		c2.5-4.8,3.8-11.1,4.4-16.2l2.8,0.8c-0.2,1.3-1.5,10.9-4.3,16.3L564.9,186.5z"/>
	<path class="st4" d="M623.7,165.5v45.2h-44.1v-45.2H623.7z M600,168.3h-17.5v17.9H600V168.3z M600,188.9h-17.5v19H600V188.9z
		 M620.7,168.3h-17.8v17.9h17.8V168.3z M620.7,188.9h-17.8v19h17.8V188.9z"/>
	<path class="st4" d="M630.2,208.7c4.1-1.7,8.3-4.2,12.9-9.9l2.3,1.6c-4.6,5.9-9,8.6-13.3,10.6L630.2,208.7z M656.3,211.6h-3v-15.9
		h-20.5V166h2.8v27.1h43.4v2.6h-22.7V211.6z M674.2,164.7v23.9h-32.2v-23.9H674.2z M671.4,167.2h-26.6v4.6h26.6V167.2z M671.4,174.1
		h-26.6v4.6h26.6V174.1z M671.4,181.3h-26.6v4.7h26.6V181.3z M666.1,198.8c6,6,10.3,8.2,13.2,9.6l-2,2.4c-5.3-2.4-9.8-6.5-13.3-10.3
		L666.1,198.8z"/>
	<path class="st4" d="M711.8,206.3c4.1-10.5,6.4-18.8,8.2-29.6l3.1,0.8c-2.2,12-4.5,19.9-8,28.9h17v2.8h-48.6v-2.8H711.8z
		 M709.3,163v7.4h20.4v2.8h-43.9v-2.8h20.4V163H709.3z M697.4,202.8c-0.6-8.6-2.9-17.2-5.6-24.2l2.8-0.9c2.4,6.4,5.4,17.3,6,24.6
		L697.4,202.8z"/>
	<path class="st4" d="M758.8,163h3.2v13.7h23.2v2.8h-22.5c3.4,15.3,11.1,23.3,23,29l-2.1,2.6c-6.8-3.4-18.5-10.6-22.7-27.6
		c-3.1,13.9-10.5,21.9-23.3,27.9l-1.6-2.7c10.9-4.6,20.3-12.8,22.5-29.1h-22.1v-2.9h22.3L758.8,163L758.8,163z"/>
	<path class="st4" d="M829.5,182.8c-4.4,3.8-7.9,5.9-13.5,8.8v1.9h22.3v2.7h-22.3V208c0,3.6-2.1,3.6-4.3,3.6h-8.8l-0.7-3.2l8.8,0.1
		c1.7,0,2.1,0,2.1-1.6v-10.7h-23.3v-2.7h23.3v-4.6h2.3c2.8-1.3,6.6-3.5,9.6-6h-26.9v-2.6h31.4L829.5,182.8L829.5,182.8z M837,172.1
		v11.1h-3.1v-8.6h-39.8v8.5h-3v-11.1h33.7c1.5-2.1,3.6-6.2,4.7-8.8l2.9,1.2c-0.7,1.5-2.6,5.2-4.3,7.6L837,172.1L837,172.1z
		 M799.7,171.4c-1.1-2.3-2.6-4.8-4-6.8l2.4-1.1c2.1,2.6,3.8,5.9,4.3,6.8L799.7,171.4z M813.7,170.5c-1-2-2.8-5.1-4-6.9l2.6-1.1
		c1.2,1.7,2.1,3.1,4,6.8L813.7,170.5z"/>
</g>
<g>
	<path class="st4" d="M561.2,342c-5.1-3.9-27.2-19.5-37.3-24.6l6.5-10.6c7.7,4.1,21.9,12,38.3,25.3L561.2,342z M573,378.6
		c-16.9,46.5-27.4,63.3-38.7,79l-8.9-12c14.2-20.2,29.1-54.9,34.9-73.2L573,378.6z M570.6,276.2c-14.7-10.8-31.3-19.5-37.1-22.6
		l6.2-11.1c10.8,5.1,29.6,15.6,38.3,21.7L570.6,276.2z M618,262.7v-23.1h12v23.1h37.3v11.6h-37.3v22.4h31v79.9h-31v23.1h37.3v11.6
		h-37.3v48.6h-12v-48.6h-41.9v-11.6H618v-23.1h-32v-79.9h32v-22.4h-36.8v-11.6H618z M648.8,308h-50.8v22.4h50.8V308z M648.8,341.2
		h-50.8v24.1h50.8V341.2z M741.3,446.9c0,10.6-5.8,13-14.5,13h-26.7l-2.9-13.7l25.7,0.7c5.5,0.2,6-1.9,6-6v-60.2h-40
		c-1.5,26.2-7,53.7-27.9,79.9l-10.3-6.8c7.7-9.2,26-31,26-81.4V248.8h64.5L741.3,446.9L741.3,446.9z M729,260.6h-40V308h40V260.6z
		 M729,319.3h-40v50.3h40V319.3z"/>
	<path class="st4" d="M959.9,249.5c0,14.9-0.5,81.4-0.5,94.9c0,63.3,6.5,95.3,7.7,98.2c0.5,1.5,1.5,2.4,3.4,2.4
		c6.8,0,8.9-26,10.1-40.9l13,7c-0.9,13.5-3.4,30.1-9.2,41.9c-2.6,5.3-8.4,7.9-13.2,7.9c-7.9,0-12.3-5.8-14.7-10.8
		c-6-13.2-10.8-60.7-10.8-95.3c0-4.8,0.5-82.6,0.5-93.2H803.4v72.2c0,79.9-20.2,111.7-28.9,125l-10.3-9.4c11.3-19,26-48.6,26-114.8
		v-85H959.9z M913.7,401c12.3,14.7,24.1,36.8,30.1,51.5l-12.5,4.6c-1.9-4.6-3.4-7.9-8.4-17.8c-43.1,2.9-76.8,4.3-118.7,5.5l-0.9-13
		c10.3-0.2,56.8-1.2,66.5-1.5v-38.5h-46v-75.2h46v-24.1c-26.5,0.9-40.7,0.9-52.2,0.9l-2.2-11.8c32.5,0.2,86.7-0.9,117-8.4l4.1,12.3
		c-8.6,1.9-23.1,5.1-54.2,6.2v24.8h46v75.1h-46v38c5.3-0.2,29.6-1.2,34.7-1.5c-8.2-13.5-10.6-16.6-14-21.2L913.7,401z M869.6,328.2
		h-33.2v51.5h33.2V328.2z M915.6,328.2h-33.4v51.5h33.4V328.2z"/>
	<path class="st4" d="M1056.2,274.3c7.5,5.1,18.8,15.6,22.9,20.7c16.4-16.9,20.5-25,23.3-30.3h-47.2c-19,20.2-30.1,26.2-39,31
		l-5.1-10.8c20-10.8,39.5-29.4,48.4-45.7l12.5,2.9c-2.4,4.6-3.4,6.2-7.2,11.8h50.5v11.1c-20.2,41.7-75.1,79.2-100.4,92l-6.2-11.1
		c9.2-4.6,24.6-12,44.5-27.9c-5.1-5.5-15.6-15.2-22.9-21.2l7.7-6.5c9.2,6.8,19,16.6,23.1,21.4c5.1-4.3,8.4-7.5,10.6-9.6
		c-6.5-7.5-14.5-14.5-22.9-20.9L1056.2,274.3z M1009.2,442.6c17.6-10.3,37.8-24.8,56.8-49.1l10.6,7c-16.1,24.1-46,46-56.6,52.7
		L1009.2,442.6z M1126.3,379v68.8c0,9.9-5.8,12.3-14.9,12.3h-31l-2.6-14.5l28.2,0.5c6,0,7.5-0.9,7.5-5.8V379h-102.1v-11.8h217.4V379
		H1126.3z M1067,338.6v-11.8h106.7v11.8H1067z M1223.2,354.7c-44.5-25.5-82.1-57.3-106.9-111.7l12.3-2.9
		c16.1,37.1,35.4,54.9,46.2,64.8c3.1-3.1,20.7-19.5,33.4-40h-58v-11.1h72.9v11.1c-9.6,17.8-30.3,40-39,48.1
		c9.2,7.5,22.4,17.3,45.7,29.9L1223.2,354.7z M1174.2,393.3c17.6,23.6,41.7,42.1,54.9,48.9l-10.3,11.1c-25.3-15.4-45.3-39.3-55.6-53
		L1174.2,393.3z"/>
</g>
<g>
	<path class="st4" d="M530,538.5l-3.6,9.1h-2.6l11.5-28.9h3.2l11.5,28.9h-2.6l-3.6-9.1H530z M543,536.4l-6.1-15.6l-6.1,15.6H543z"/>
	<path class="st4" d="M556.2,534.7l9.8-8.6h3.2l-10.3,8.9l11.8,12.6h-3.1l-11.5-12.5v12.5h-2.3v-30.3h2.3L556.2,534.7L556.2,534.7z"
		/>
	<path class="st4" d="M578.6,522h-3v-3.2h3V522z M578.3,547.6h-2.4v-21.6h2.4V547.6z"/>
	<path class="st4" d="M585.7,519.9h2.3v6.2h6.9v2.1H588v13.7c0,2.6,0.2,4.3,3.9,4.3c0.4,0,1.3,0,2.6-0.2v2c-0.6,0.1-1.5,0.2-2.8,0.2
		c-5.4,0-6-2.7-6-6.5v-13.6h-2.8V526h2.8L585.7,519.9L585.7,519.9z"/>
	<path class="st4" d="M599.8,527.2c3-1.7,5.8-1.7,6.6-1.7c2.8,0,5.6,0.8,7.3,2.8c1.1,1.4,1.3,3,1.3,5.2v10.2c0,2.2,0.4,3.2,0.8,3.9
		h-2.4c-0.4-0.9-0.6-1.5-0.6-3.7c-2.8,3.9-6.5,4.3-8.2,4.3c-4.5,0-6.8-2.9-6.8-6.3c0-1.5,0.2-5.6,6.8-6.8c0.9-0.2,5.3-0.8,6.2-0.9
		c0.8-0.2,2-0.5,2-2.4c0-3-3-4.3-6.2-4.3c-3.4,0-5.4,1.2-6.5,1.9L599.8,527.2z M612.7,535.5c-0.9,0.6-1.4,0.7-5.6,1.3
		c-3.8,0.6-7,1.1-7,5.1c0,1.7,0.8,4.3,4.7,4.3c4.3,0,6.8-3,7.9-5.5V535.5z"/>
	<path class="st4" d="M641.7,518.8c5.7,0,8.9,3.4,8.9,8.3c0,5.6-3.7,8.3-9.4,8.3h-5.3v12.2h-2.4v-28.9H641.7z M640.3,533.3
		c2.7,0,7.9,0,7.9-6.1c0-6.2-5-6.2-7.9-6.2h-4.3v12.3H640.3z"/>
	<path class="st4" d="M655.7,547.6v-21.6h2.3v3.1c2.4-3.9,5.8-3.8,7.1-3.7v2.1c-1.6-0.2-3.1,0.2-4.3,1.1c-2.5,1.7-2.8,3.9-2.8,6.9
		v12.1H655.7z"/>
	<path class="st4" d="M671.2,537.6c0.1,1.7,0.3,8.5,8.6,8.5c3.3,0,5-0.9,6.4-1.5v2.3c-0.9,0.3-3,1.3-6.5,1.3
		c-8.9,0-10.9-7-10.9-11.2c0-6.3,3.6-11.5,9.7-11.5c2.5,0,6.3,0.9,8.2,5.4c1.1,2.6,1.2,5.3,1.2,6.7H671.2z M685.7,535.6
		c-0.4-5.4-3.6-8-7.1-8c-4.2,0-7.1,3.4-7.4,8H685.7z"/>
	<path class="st4" d="M700.3,526.1v2.1h-4.1v19.5h-2.3v-19.5h-3v-2.1h3v-3c0-1.9,0-5.7,5.1-5.7c0.6,0,0.9,0.1,1.3,0.2l-0.2,2
		c-0.4,0-0.7-0.1-0.9-0.1c-2.9,0-2.9,1.8-2.9,3.7v3H700.3z"/>
	<path class="st4" d="M705.4,537.6c0.1,1.7,0.3,8.5,8.6,8.5c3.3,0,5-0.9,6.4-1.5v2.3c-0.9,0.3-3,1.3-6.5,1.3
		c-8.9,0-10.9-7-10.9-11.2c0-6.3,3.6-11.5,9.7-11.5c2.5,0,6.3,0.9,8.2,5.4c1.1,2.6,1.2,5.3,1.2,6.7H705.4z M719.9,535.6
		c-0.4-5.4-3.6-8-7.1-8c-4.2,0-7.1,3.4-7.4,8H719.9z"/>
	<path class="st4" d="M743.1,547c-2,0.9-4,1.3-6.2,1.3c-7.8,0-11-5.8-11-11.4c0-6.2,4.1-11.4,10.9-11.4c3.3,0,5.1,1,6.2,1.7
		l-0.7,2.1c-1.2-0.8-2.4-1.7-5.4-1.7c-4.8,0-8.7,3.2-8.7,9.3c0,5.2,2.8,9.4,8.8,9.4c2.2,0,4.1-0.5,6-1.5L743.1,547L743.1,547z"/>
	<path class="st4" d="M748.8,519.9h2.3v6.2h6.9v2.1h-6.9v13.7c0,2.6,0.2,4.3,3.9,4.3c0.4,0,1.3,0,2.6-0.2v2
		c-0.6,0.1-1.5,0.2-2.8,0.2c-5.4,0-6-2.7-6-6.5v-13.6H746V526h2.8L748.8,519.9L748.8,519.9z"/>
	<path class="st4" d="M778.8,526.1v21.6h-2.3v-3.1c-1.7,2.6-4.1,3.7-7,3.7c-3.2,0-5.4-1.5-6.5-3.3c-0.9-1.7-1-3.4-1-6.5v-12.3h2.3
		v12.8c0,4.2,0.8,7.3,5.4,7.3c2.7,0,4.6-1.3,5.7-3.1c0.8-1.3,1-3.1,1-4.9V526L778.8,526.1L778.8,526.1z"/>
	<path class="st4" d="M784.9,547.6v-21.6h2.3v3.1c2.4-3.9,5.8-3.8,7.1-3.7v2.1c-1.6-0.2-3.1,0.2-4.3,1.1c-2.5,1.7-2.8,3.9-2.8,6.9
		v12.1H784.9z"/>
	<path class="st4" d="M800.1,527.2c3-1.7,5.8-1.7,6.6-1.7c2.8,0,5.6,0.8,7.3,2.8c1.1,1.4,1.3,3,1.3,5.2v10.2c0,2.2,0.4,3.2,0.8,3.9
		h-2.4c-0.4-0.9-0.6-1.5-0.6-3.7c-2.8,3.9-6.5,4.3-8.2,4.3c-4.5,0-6.8-2.9-6.8-6.3c0-1.5,0.2-5.6,6.8-6.8c0.9-0.2,5.3-0.8,6.2-0.9
		c0.8-0.2,2-0.5,2-2.4c0-3-3-4.3-6.2-4.3c-3.4,0-5.4,1.2-6.5,1.9L800.1,527.2z M813,535.5c-0.9,0.6-1.4,0.7-5.6,1.3
		c-3.8,0.6-7,1.1-7,5.1c0,1.7,0.8,4.3,4.7,4.3c4.3,0,6.8-3,7.9-5.5V535.5z"/>
	<path class="st4" d="M827.9,547.6h-1.5c-4.1,0-4.3-2.3-4.3-4.5v-25.8h2.3V543c0,1.4,0,2.6,2,2.6h1.5L827.9,547.6L827.9,547.6z"/>
	<path class="st4" d="M867.8,518.8v16.4c0,4.3-0.3,13.1-12,13.1c-11.7,0-12-8.8-12-13v-16.4h2.4v16.3c0,4.4,0.3,11,9.6,11
		c9.4,0,9.6-6.6,9.6-11v-16.3H867.8z"/>
	<path class="st4" d="M874,547.6v-21.6h2.3v3.1c1.7-2.4,4-3.7,7-3.7c3.6,0,5.6,1.8,6.5,3.3c0.9,1.7,1,3.3,1,6.5v12.3h-2.3v-12.1
		c0-3.6,0-8-5.4-8c-2.6,0-4.6,1.3-5.7,3.1c-0.9,1.5-1,3.2-1,4.9v12.1L874,547.6L874,547.6z"/>
	<path class="st4" d="M900.1,522h-3v-3.2h3V522z M899.7,547.6h-2.4v-21.6h2.4V547.6z"/>
	<path class="st4" d="M919.2,526.1h2.4l-7.2,21.6h-3l-7.2-21.6h2.4l6.3,19.4L919.2,526.1z"/>
	<path class="st4" d="M926.7,537.6c0.1,1.7,0.3,8.5,8.6,8.5c3.3,0,5-0.9,6.4-1.5v2.3c-0.9,0.3-3,1.3-6.5,1.3
		c-8.9,0-10.9-7-10.9-11.2c0-6.3,3.6-11.5,9.7-11.5c2.5,0,6.3,0.9,8.2,5.4c1.1,2.6,1.2,5.3,1.2,6.7H926.7z M941.2,535.6
		c-0.4-5.4-3.6-8-7.1-8c-4.2,0-7.1,3.4-7.4,8H941.2z"/>
	<path class="st4" d="M948.4,547.6v-21.6h2.3v3.1c2.4-3.9,5.8-3.8,7.1-3.7v2.1c-1.6-0.2-3.1,0.2-4.3,1.1c-2.5,1.7-2.8,3.9-2.8,6.9
		v12.1H948.4z"/>
	<path class="st4" d="M974.1,528.7c-0.7-0.3-2.2-1.1-4.5-1.1c-2.9,0-5.2,1.3-5.2,3.8c0,2.4,1.3,3.1,5.7,4.4c3.2,0.9,6,2.3,6,6.1
		c0,4.2-3.8,6.3-8.4,6.3c-2.4,0-4.5-0.5-6.6-1.5l0.8-2c1.7,0.9,3.5,1.5,5.9,1.5c3.2,0,6-1.2,6-4.2c0-2.8-2.1-3.5-5.9-4.7
		c-3.1-0.9-5.9-2-5.9-5.8c0-3.8,3.3-6,7.5-6c2.5,0,4.1,0.7,5.1,1.1L974.1,528.7z"/>
	<path class="st4" d="M984.5,522h-3v-3.2h3V522z M984.2,547.6h-2.4v-21.6h2.4V547.6z"/>
	<path class="st4" d="M991.6,519.9h2.3v6.2h6.9v2.1h-6.9v13.7c0,2.6,0.2,4.3,3.9,4.3c0.4,0,1.3,0,2.6-0.2v2
		c-0.6,0.1-1.5,0.2-2.8,0.2c-5.4,0-6-2.7-6-6.5v-13.6h-2.8V526h2.8V519.9z"/>
	<path class="st4" d="M1010.7,546.2l-8-20.1h2.4l6.8,17.1l6.8-17.1h2.4l-12.6,31.4h-2.3L1010.7,546.2z"/>
	<path class="st4" d="M1060.1,546.3c-1.2,0.6-4,2-8.5,2c-9.9,0-15.5-6.9-15.5-15c0-8.3,5.9-15,15.2-15c4.6,0,7.3,1.7,8.5,2.4
		l-0.9,2.2c-1.7-1.1-3.8-2.4-7.7-2.4c-7.8,0-12.8,5.6-12.8,12.8c0,6.2,4,12.8,13.2,12.8c4.5,0,7-1.5,8.3-2.4L1060.1,546.3
		L1060.1,546.3z"/>
	<path class="st4" d="M1083.4,531.2v-12.4h2.4v28.9h-2.4v-14.3h-16.1v14.3h-2.4v-28.9h2.4v12.4H1083.4z"/>
	<path class="st4" d="M1105.7,518.2c8.5,0,15,6.3,15,15c0,8.7-6.5,15-15,15c-8.5,0-15-6.2-15-15
		C1090.7,524.4,1097.2,518.2,1105.7,518.2z M1105.7,546c7.1,0,12.6-5.7,12.6-12.8c0-7.1-5.4-12.8-12.6-12.8s-12.6,5.6-12.6,12.8
		C1093.1,540.4,1098.5,546,1105.7,546z"/>
	<path class="st4" d="M1141.1,531.7v2.2h-13.3v13.7h-2.4v-28.9h16.9v2.2h-14.5v10.8H1141.1z"/>
	<path class="st4" d="M1172,518.8v16.4c0,4.3-0.3,13.1-12,13.1c-11.7,0-12-8.8-12-13v-16.4h2.4v16.3c0,4.4,0.3,11,9.6,11
		c9.4,0,9.6-6.6,9.6-11v-16.3H1172z"/>
	<path class="st4" d="M1191.4,522c-0.9-0.6-2.8-1.6-5.6-1.6c-4,0-6,2.8-6,5.6c0,3.4,2.5,4.5,6.2,5.8c3.5,1.3,7.9,2.8,7.9,8.3
		c0,5.4-4.5,8.2-9.9,8.2c-2.7,0-5.4-0.7-7.7-2.1l0.8-2.1c2,1.3,4.1,2.1,6.9,2.1c3.4,0,7.5-1.5,7.5-6c0-4.1-3.1-5.2-6.3-6.3
		c-3.6-1.3-7.8-2.8-7.8-7.8c0-4.2,3.1-7.8,8.5-7.8c2.3,0,4.3,0.6,6.2,1.5L1191.4,522z"/>
	<path class="st4" d="M1202.8,538.5l-3.6,9.1h-2.6l11.5-28.9h3.2l11.5,28.9h-2.6l-3.6-9.1H1202.8z M1215.8,536.4l-6.1-15.6
		l-6.1,15.6H1215.8z"/>
	<path class="st4" d="M1230,518.8v28.9h-2.6v-28.9H1230z"/>
</g>
<line class="st5" x1="523.9" y1="492.7" x2="1230" y2="492.7"/>
</svg>
